<?xml version="1.0" standalone="no"?>
<!DOCTYPE svg PUBLIC "-//W3C//DTD SVG 20010904//EN"
 "http://www.w3.org/TR/2001/REC-SVG-20010904/DTD/svg10.dtd">
<svg version="1.0" xmlns="http://www.w3.org/2000/svg"
 width="700.000000pt" height="700.000000pt" viewBox="0 0 700.000000 700.000000"
 preserveAspectRatio="xMidYMid meet">
<metadata>
Created by potrace 1.14, written by Peter Selinger 2001-2017
</metadata>
<g transform="translate(0.000000,700.000000) scale(0.100000,-0.100000)"
fill="#000000" stroke="none">
<path d="M1809 5946 c-2 -2 -25 -7 -51 -10 -103 -14 -224 -63 -333 -137 -226
-151 -362 -399 -370 -674 -8 -275 94 -506 300 -681 100 -84 166 -120 300 -165
l79 -26 1 -734 c0 -404 -1 -744 -3 -756 -3 -17 -15 -26 -46 -33 -307 -79 -546
-330 -616 -648 -25 -114 -21 -283 9 -395 88 -323 348 -562 676 -623 100 -19
281 -11 375 16 290 83 523 316 600 603 7 26 15 47 19 48 3 0 80 1 171 3 137 2
171 5 200 20 83 43 116 134 78 218 -39 88 -73 101 -282 103 l-168 1 -33 96
c-47 139 -102 228 -208 336 -101 103 -234 182 -367 218 l-65 17 0 753 c0 414
3 755 6 759 4 3 15 7 25 9 77 16 222 82 298 137 155 113 276 288 326 471 7 28
19 48 29 50 9 2 349 3 755 3 l740 -1 21 -69 c60 -197 178 -356 350 -470 78
-52 215 -115 252 -115 36 0 47 -17 49 -74 3 -110 70 -182 168 -180 103 2 163
64 170 173 2 34 6 64 8 65 1 2 35 13 75 25 283 90 495 311 574 598 30 110 34
282 9 394 -58 263 -224 475 -463 592 -207 102 -471 112 -686 26 -239 -96 -423
-294 -502 -544 -12 -38 -23 -72 -26 -74 -2 -3 -343 -5 -758 -5 -608 -1 -755 2
-755 12 0 18 -38 128 -62 181 -53 118 -162 248 -278 333 -50 37 -184 103 -240
119 -48 13 -49 13 -95 24 -34 8 -250 17 -256 11z m252 -364 c364 -120 474
-578 205 -848 -119 -119 -290 -172 -461 -142 -86 16 -193 74 -260 142 -106
108 -156 235 -150 378 6 143 59 260 160 354 79 73 159 113 280 137 42 9 172
-3 226 -21z m3175 5 c120 -36 238 -126 298 -229 91 -156 96 -346 13 -503 -67
-126 -218 -239 -353 -263 -328 -58 -617 189 -608 518 6 248 188 454 434 492
49 8 167 0 216 -15z m-3196 -3187 c160 -43 309 -189 356 -349 19 -65 24 -176
12 -245 -16 -86 -74 -194 -142 -262 -34 -33 -76 -67 -93 -75 -18 -7 -33 -17
-33 -20 0 -12 -139 -50 -201 -54 -285 -20 -536 206 -544 492 -3 93 12 162 54
248 68 137 214 249 356 272 17 3 31 6 32 7 8 7 165 -3 203 -14z"/>
<path d="M5050 3434 c-54 -17 -81 -39 -106 -85 -16 -31 -18 -63 -19 -319 l-1
-284 -69 -22 c-281 -86 -486 -289 -575 -569 -13 -38 -24 -72 -26 -74 -2 -3
-131 -5 -287 -6 -172 -1 -292 -6 -307 -12 -28 -12 -72 -56 -89 -90 -17 -33
-16 -93 2 -133 22 -48 36 -64 77 -86 32 -17 62 -18 318 -20 155 0 284 -3 287
-6 3 -3 12 -29 19 -59 72 -276 316 -513 609 -591 87 -23 265 -31 359 -15 230
37 454 190 578 392 42 69 96 193 105 242 2 16 9 51 14 78 15 77 6 258 -18 347
-51 187 -158 346 -315 467 -66 51 -194 115 -273 137 -35 10 -63 20 -64 23 -1
3 -2 132 -3 286 -2 170 -7 290 -13 305 -17 39 -66 80 -114 94 -37 11 -52 11
-89 0z m205 -1043 c84 -30 143 -68 207 -133 228 -231 177 -623 -101 -788 -84
-50 -154 -71 -248 -74 -202 -8 -390 104 -476 284 -41 86 -54 147 -51 240 2 94
10 126 51 210 66 135 197 239 344 274 74 18 205 11 274 -13z"/>
</g>
</svg>
